<?xml version="1.0" encoding="UTF-8"?><svg id="Layer_2" xmlns="http://www.w3.org/2000/svg" viewBox="0 0 389.9 66.38"><defs><style>.cls-1{fill:#70bc44;}.cls-1,.cls-2{stroke-width:0px;}.cls-2{fill:#425891;}</style></defs><g id="Layer_1-2"><path class="cls-2" d="m14.63,14.68c-1.67,1.64-3.69,2.45-6.07,2.45s-4.4-.82-6.07-2.45c-1.67-1.64-2.5-3.67-2.5-6.11S.83,4.09,2.5,2.45C4.16.82,6.19,0,8.57,0s4.4.82,6.07,2.45c1.66,1.64,2.5,3.67,2.5,6.11s-.83,4.48-2.5,6.11Zm.62,50.54H1.87V21.15h13.38v44.08Z"/><path class="cls-2" d="m63.17,65.22h-13.38v-24.8c0-5.29-2.26-7.94-6.78-7.94s-6.87,2.65-6.87,7.94v24.8h-13.38v-24.8c0-6.78,1.74-11.88,5.22-15.3,3.48-3.42,8.04-5.13,13.7-5.13,6.42,0,11.33,2.29,14.72,6.87h.18c3.39-4.58,8.3-6.87,14.72-6.87,5.65,0,10.22,1.71,13.7,5.13,3.48,3.42,5.22,8.52,5.22,15.3v24.8h-13.38v-24.8c0-5.29-2.29-7.94-6.87-7.94s-6.78,2.65-6.78,7.94v24.8Z"/><path class="cls-2" d="m136.69,65.22h-13.38v-24.8c0-5.29-2.26-7.94-6.78-7.94s-6.87,2.65-6.87,7.94v24.8h-13.38v-24.8c0-6.78,1.74-11.88,5.22-15.3,3.48-3.42,8.04-5.13,13.7-5.13,6.42,0,11.33,2.29,14.72,6.87h.18c3.39-4.58,8.3-6.87,14.72-6.87,5.65,0,10.22,1.71,13.7,5.13,3.48,3.42,5.22,8.52,5.22,15.3v24.8h-13.38v-24.8c0-5.29-2.29-7.94-6.87-7.94s-6.78,2.65-6.78,7.94v24.8Z"/><path class="cls-2" d="m215.21,46.93h-33.28v.18c1.19,4.88,4.46,7.32,9.81,7.32,4.1,0,6.9-1.07,8.39-3.21h13.83c-1.43,4.58-4.14,8.25-8.12,11.02-3.99,2.77-8.69,4.15-14.1,4.15-6.96,0-12.66-2.19-17.09-6.56-4.43-4.37-6.65-9.92-6.65-16.64s2.22-12.27,6.65-16.64c4.43-4.37,10.13-6.56,17.09-6.56s12.54,2.19,16.91,6.56c4.37,4.37,6.56,9.92,6.56,16.64v3.75Zm-23.47-14.99c-4.94,0-8.12,2.11-9.55,6.33v.18h19.27v-.18c-1.55-4.22-4.79-6.33-9.73-6.33Z"/><path class="cls-2" d="m264.99,1.87v40.86c0,7.2-2.17,12.94-6.51,17.22-4.34,4.28-10.02,6.42-17.04,6.42s-12.66-2.19-17.09-6.56c-4.43-4.37-6.65-9.92-6.65-16.64,0-3.87.65-7.35,1.96-10.44,1.31-3.09,3.02-5.53,5.13-7.32,2.11-1.78,4.37-3.14,6.78-4.06,2.41-.92,4.83-1.38,7.27-1.38,5.65,0,9.84,1.9,12.58,5.71h.18V1.87h13.38Zm-30.92,49.03c1.87,1.99,4.33,2.99,7.36,2.99s5.49-1,7.36-2.99c1.87-1.99,2.81-4.56,2.81-7.72s-.94-5.72-2.81-7.72c-1.87-1.99-4.33-2.99-7.36-2.99s-5.49,1-7.36,2.99c-1.87,1.99-2.81,4.57-2.81,7.72s.94,5.73,2.81,7.72Z"/><path class="cls-2" d="m285.24,14.68c-1.67,1.64-3.69,2.45-6.07,2.45s-4.4-.82-6.07-2.45c-1.67-1.64-2.5-3.67-2.5-6.11s.83-4.48,2.5-6.11c1.67-1.64,3.69-2.45,6.07-2.45s4.4.82,6.07,2.45c1.66,1.64,2.5,3.67,2.5,6.11s-.83,4.48-2.5,6.11Zm.62,50.54h-13.38V21.15h13.38v44.08Z"/><path class="cls-2" d="m338.87,43.63v21.59h-12.31v-6.87h-.18c-1.07,2.44-2.81,4.39-5.22,5.84-2.41,1.46-5.22,2.19-8.43,2.19-2.44,0-4.86-.46-7.27-1.38s-4.67-2.27-6.78-4.06c-2.11-1.78-3.82-4.22-5.13-7.32-1.31-3.09-1.96-6.57-1.96-10.44,0-6.72,2.21-12.27,6.65-16.64,4.43-4.37,10.13-6.56,17.09-6.56s12.7,2.14,17.04,6.42c4.34,4.28,6.51,10.02,6.51,17.22Zm-30.92,7.27c1.87,1.99,4.33,2.99,7.36,2.99s5.49-1,7.36-2.99c1.87-1.99,2.81-4.56,2.81-7.72s-.94-5.72-2.81-7.72c-1.87-1.99-4.33-2.99-7.36-2.99s-5.49,1-7.36,2.99c-1.87,1.99-2.81,4.57-2.81,7.72s.94,5.73,2.81,7.72Z"/><path class="cls-1" d="m389.9,38.46h-13.56c-1.67-3.98-4.82-5.98-9.46-5.98-3.03,0-5.49,1-7.36,2.99-1.87,1.99-2.81,4.57-2.81,7.72s.94,5.73,2.81,7.72c1.87,1.99,4.33,2.99,7.36,2.99,4.64,0,7.79-1.99,9.46-5.98h13.56c-.95,5.47-3.51,9.92-7.67,13.34-4.16,3.42-9.28,5.13-15.35,5.13-6.96,0-12.66-2.19-17.09-6.56-4.43-4.37-6.65-9.92-6.65-16.64s2.21-12.27,6.65-16.64c4.43-4.37,10.13-6.56,17.09-6.56,6.07,0,11.18,1.71,15.35,5.13,4.16,3.42,6.72,7.87,7.67,13.34Z"/></g></svg>